<?xml version="1.0" encoding="UTF-8"?>
<svg id="Layer_1" data-name="Layer 1" xmlns="http://www.w3.org/2000/svg" viewBox="0 0 96 96">
  <defs>
    <style>
      .cls-1 {
        fill: none;
        stroke: #333;
        stroke-linecap: round;
        stroke-linejoin: round;
        stroke-width: 1.5px;
      }
    </style>
  </defs>
  <path class="cls-1" d="M32.06,83.06H9.75c-4.4,0-7.97-3.57-7.97-7.97V14.53c0-4.4,3.57-7.97,7.97-7.97h76.5c4.4,0,7.97,3.57,7.97,7.97v14.34"/>
  <path class="cls-1" d="M35.25,46.41h-12.75c-3.52,0-6.37,2.85-6.37,6.37v12.75c0,3.52,2.85,6.37,6.37,6.37h12.75l20.72,17.53V28.88l-20.72,17.53Z"/>
  <path class="cls-1" d="M78.28,32.48c14.73,7.93,20.25,26.29,12.32,41.02-2.81,5.23-7.1,9.51-12.32,12.32"/>
  <path class="cls-1" d="M72.67,42.14c9.4,4.83,13.1,16.37,8.27,25.76-1.83,3.55-4.72,6.44-8.27,8.27"/>
  <path class="cls-1" d="M67.82,52.19c3.84,2.14,5.22,6.99,3.08,10.84-.72,1.29-1.78,2.35-3.06,3.07"/>
</svg>