<?xml version="1.0" encoding="UTF-8"?>
<svg id="Layer_1" data-name="Layer 1" xmlns="http://www.w3.org/2000/svg" viewBox="0 0 96 96">
  <defs>
    <style>
      .cls-1 {
        fill: none;
        stroke: #333;
        stroke-linecap: round;
        stroke-linejoin: round;
        stroke-width: 1.5px;
      }
    </style>
  </defs>
  <line class="cls-1" x1="48" y1="40.31" x2="48" y2="80.36"/>
  <path class="cls-1" d="M57.24,47.1c-4.49-2.47-18.62-4.31-18.62,4.19,0,10.17,17.95,6.58,17.95,15.55s-11.66,8.3-19.74,5.38"/>
  <path class="cls-1" d="M58.88,26.44h-21.75s-26.1,27.54-26.1,44.49c0,12.71,9.24,23.3,36.98,23.3s36.98-10.59,36.98-23.3c0-16.95-26.1-44.49-26.1-44.49Z"/>
  <polyline class="cls-1" points="58.78 26.44 66.49 11.04 57.24 7.95"/>
  <polyline class="cls-1" points="38.76 7.95 29.51 11.04 37.22 26.44"/>
  <polyline class="cls-1" points="41.84 14.12 35.67 1.79 60.33 1.79 54.16 14.12"/>
</svg>