<?xml version="1.0" encoding="UTF-8"?>
<svg id="Layer_1" data-name="Layer 1" xmlns="http://www.w3.org/2000/svg" viewBox="0 0 96 96">
  <defs>
    <style>
      .cls-1 {
        fill: none;
        stroke: #333;
        stroke-linecap: round;
        stroke-linejoin: round;
        stroke-width: 1.5px;
      }
    </style>
  </defs>
  <path class="cls-1" d="M48,59.48c-14.99,0-27.14-12.15-27.14-27.14S33.01,5.2,48,5.2s27.14,12.15,27.14,27.14-12.15,27.14-27.14,27.14Z"/>
  <path class="cls-1" d="M66.79,90.8c-14.99,0-27.14-12.15-27.14-27.14s12.15-27.14,27.14-27.14,27.14,12.15,27.14,27.14-12.15,27.14-27.14,27.14Z"/>
  <path class="cls-1" d="M29.21,90.8c-14.99,0-27.14-12.15-27.14-27.14s12.15-27.14,27.14-27.14,27.14,12.15,27.14,27.14-12.15,27.14-27.14,27.14Z"/>
</svg>