<?xml version="1.0" encoding="UTF-8"?>
<svg id="Layer_1" data-name="Layer 1" xmlns="http://www.w3.org/2000/svg" xmlns:xlink="http://www.w3.org/1999/xlink" viewBox="0 0 32 32">
  <defs>
    <style>
      .cls-1 {
        fill: none;
      }

      .cls-2 {
        fill: #cd7755;
      }

      .cls-3 {
        clip-path: url(#clippath-1);
      }

      .cls-4 {
        clip-path: url(#clippath-3);
      }

      .cls-5 {
        clip-path: url(#clippath-2);
      }

      .cls-6 {
        fill: #152a36;
      }

      .cls-7 {
        opacity: 0;
      }

      .cls-8 {
        clip-path: url(#clippath);
      }
    </style>
    <clipPath id="clippath">
      <rect class="cls-1" x="1.41" y="0" width="29.18" height="32"/>
    </clipPath>
    <clipPath id="clippath-1">
      <rect class="cls-1" x="1.41" y="0" width="29.18" height="32"/>
    </clipPath>
    <clipPath id="clippath-2">
      <rect class="cls-1" x="1.41" y="0" width="29.18" height="32"/>
    </clipPath>
    <clipPath id="clippath-3">
      <rect class="cls-1" x="1.41" y="0" width="29.18" height="32"/>
    </clipPath>
  </defs>
  <g id="Artwork_3" data-name="Artwork 3">
    <g class="cls-8">
      <g class="cls-3">
        <g class="cls-5">
          <g class="cls-7">
            <g class="cls-4">
              <rect class="cls-6" x="1.41" y="0" width="29.18" height="32"/>
            </g>
          </g>
          <path class="cls-2" d="M28.76,24.15l-6.62-7.04,6.38-3.34c.12-.07.19-.2.16-.33-.02-.14-.13-.24-.27-.26l-2.83-.37,2.91-3.39c.09-.1.1-.25.03-.37-.07-.12-.21-.17-.34-.14l-7.95,1.97-1.67-8.88c-.03-.14-.14-.24-.28-.25-.14,0-.28.07-.32.21l-2.44,7-2.99-3.45c-.09-.1-.23-.14-.35-.09-.12.05-.2.17-.2.31l.25,4.51-5.76-2.68c-.13-.06-.29-.03-.38.09-.09.11-.09.28,0,.39l5.48,6.91-8.23,3.59c-.13.06-.21.2-.18.34.02.14.14.25.28.26l5.69.48-1.67,1.86c-.1.1-.11.26-.03.38.08.12.23.17.37.12l5.87-2.05-.15,10.01c0,.14.09.27.23.31,0,0,.01,0,.02,0,.14.03.29-.04.35-.18l3.52-7.98,2.44,1.87c.1.07.23.09.34.03.11-.06.17-.18.16-.3l-.19-2.23,8.01,3.21c.14.05.29,0,.38-.11.08-.12.07-.28-.03-.39M27.18,23.39l-7.98-5.2.24-2.29,1.88,1.12c0,.08.02.16.08.21l5.78,6.15M18.06,19.96h0l-1.55-.45-1.63-2.31.24-1.69.95-.57,2.45,5.16-.46-.14h0ZM16.34,14.78l.97-.58s.02.06.05.08l1.79,1.44-.43,4.06-2.38-5ZM17.65,4.75l-1.01,6.08-.72-1.12s.01-.03.02-.04l1.72-4.92ZM16.89,11.22l1.3-7.82,1.48,7.9-1.83,1.41-.96-1.49ZM27.16,9.81l-7.84,5.64-1.75-1.41.04-.03h0s0-.01.01-.02c0,0,.02-.02.03-.03,0,0,.01-.02.02-.03,0,0,0-.01,0-.02l.25-.86,8.88-3.17.34-.09h0ZM27.35,13.67l-5.86,3.07h0s-.38-.22-.38-.22l3.76-3.19s.04.01.07.02l2.42.32ZM24.73,12.84c-.06.07-.08.17-.07.26l-3.85,3.26-1.21-.72,7.14-5.14-2.01,2.34ZM23.75,10.66l-5.06,1.81,1.18-.91c.06.03.13.03.19.02l3.69-.92ZM15.4,9.77c.07.07.16.11.25.1l.94,1.46,1.05,1.62-.24.81-1.2.72-3.17-7.45,2.37,2.73h0ZM12.68,7.01l3.25,7.64-.99.59-1.3-.38-.86-3.9c.07-.06.11-.15.1-.24l-.21-3.71h0ZM12.44,11.03s.03,0,.04.01l.42,1.91-4.97-4.02,4.5,2.1ZM7.91,9.31l5.1,4.13.31,1.41-.99.06s0-.02-.01-.02l-4.42-5.58h0ZM12.2,15.36c.07-.03.11-.08.14-.15l1.15-.07,1.3.38-.22,1.58-9.4,1.32,7.03-3.06M5.58,18.68l7.99-1.12-3.59,1.54s-.1-.06-.16-.06l-4.24-.35M8.75,20.98l1.28-1.42s.07-.11.07-.17l4.55-1.95.78,1.1-1.27.69s-.05-.03-.07-.03c-.06-.02-.13-.02-.19,0l-5.15,1.79M14.32,19.49l1.3-.7.62.88-2.05,8.24.13-8.41ZM17.24,21.47l-2.58,5.85,1.86-7.48,1.29.38-.35,1.08h-.01c-.09.02-.17.09-.21.17M17.76,21.39l.35-1.08.64.19.98.5h0s.17,2.04.17,2.04l-2.15-1.65h0ZM20.16,20.68c-.1-.04-.2-.03-.28.03l-.9-.46.18-1.71,6.93,4.52-5.93-2.37h0Z"/>
        </g>
      </g>
    </g>
  </g>
</svg>