<?xml version="1.0" encoding="UTF-8"?>
<svg id="Layer_1" data-name="Layer 1" xmlns="http://www.w3.org/2000/svg" viewBox="0 0 96 96">
  <defs>
    <style>
      .cls-1 {
        fill: none;
        stroke: #333;
        stroke-linecap: round;
        stroke-linejoin: round;
        stroke-width: 1.5px;
      }
    </style>
  </defs>
  <line class="cls-1" x1="48" y1="51.07" x2="48" y2="1.87"/>
  <path class="cls-1" d="M74.14,67.99v18.45c0,4.24-3.44,7.69-7.69,7.69H29.55c-4.24,0-7.69-3.44-7.69-7.69v-18.45"/>
  <rect class="cls-1" x="12.63" y="58.77" width="70.74" height="9.22"/>
  <path class="cls-1" d="M26.47,8.02h1.54c11.04,0,19.99,8.95,19.99,19.99v3.07h-1.54c-11.04,0-19.99-8.95-19.99-19.99,0,0,0-3.07,0-3.07Z"/>
  <path class="cls-1" d="M69.53,17.24h-1.54c-11.04,0-19.99,8.95-19.99,19.99v3.07h1.54c11.04,0,19.99-8.95,19.99-19.99v-3.07Z"/>
</svg>