<?xml version="1.0" encoding="UTF-8"?>
<svg id="Layer_1" data-name="Layer 1" xmlns="http://www.w3.org/2000/svg" viewBox="0 0 96 96">
  <defs>
    <style>
      .cls-1 {
        fill: none;
        stroke: #333;
        stroke-miterlimit: 10;
        stroke-width: 1.5px;
      }
    </style>
  </defs>
  <path class="cls-1" d="M47.58,2.27c.54-.1,7.96,4.17,9.33,4.77,8.44,3.74,17.56,6.05,26.8,6.62-.57,11.78,1.28,32.76-1.3,42.97-4.16,16.35-19.07,30.51-34.19,37.21-15.14-5.91-29.7-20.11-34.17-35.91-3.27-11.58-1.1-31.37-1.74-44.27,12.5-.74,24.75-4.64,35.27-11.39Z"/>
  <path class="cls-1" d="M36.83,30.39c6.85-1.11,10.37,4.12,11.01,4.24l.21.14c9.34-9.9,22.1-1.87,21.34,7.86-.63,8.12-14.88,20.99-21.54,25.56-6.41-5.28-21.53-17.97-21.2-26.64.21-5.72,4.73-10.28,10.2-11.15h-.01Z"/>
</svg>