<?xml version="1.0" encoding="UTF-8"?>
<svg id="Layer_1" data-name="Layer 1" xmlns="http://www.w3.org/2000/svg" viewBox="0 0 96 96">
  <defs>
    <style>
      .cls-1 {
        fill: none;
        stroke: #333;
        stroke-linecap: round;
        stroke-linejoin: round;
        stroke-width: 1.5px;
      }
    </style>
  </defs>
  <path class="cls-1" d="M48,81.67c-24.23,0-43.87-19.64-43.87-43.87,6.78,0,13.47,1.57,19.54,4.59"/>
  <path class="cls-1" d="M48,81.67c24.23,0,43.87-19.64,43.87-43.87-6.78,0-13.47,1.57-19.54,4.59"/>
  <path class="cls-1" d="M48,81.67c20.84-19.71,21.75-52.59,2.04-73.43-.66-.7-1.34-1.38-2.04-2.04-20.84,19.71-21.75,52.59-2.04,73.43.66.7,1.34,1.38,2.04,2.04"/>
  <path class="cls-1" d="M9.88,73.07c-2.95,1.34-5.69,3.11-8.12,5.25,11.58,13.68,32.06,15.37,45.73,3.79.17-.15.34-.29.51-.44"/>
  <path class="cls-1" d="M86.12,73.07c2.95,1.34,5.69,3.11,8.12,5.25-11.58,13.68-32.06,15.37-45.73,3.79-.17-.15-.34-.29-.51-.44"/>
</svg>