<?xml version="1.0" encoding="UTF-8"?>
<svg id="Layer_1" data-name="Layer 1" xmlns="http://www.w3.org/2000/svg" viewBox="0 0 96 96">
  <defs>
    <style>
      .cls-1 {
        fill: none;
        stroke: #333;
        stroke-linecap: round;
        stroke-linejoin: round;
        stroke-width: 1.5px;
      }
    </style>
  </defs>
  <circle class="cls-1" cx="23.42" cy="22.62" r="6.36"/>
  <circle class="cls-1" cx="52.04" cy="87.83" r="6.36"/>
  <circle class="cls-1" cx="80.67" cy="22.62" r="6.36"/>
  <polyline class="cls-1" points="37.73 49.66 37.73 73.51 47.54 83.33"/>
  <circle class="cls-1" cx="87.03" cy="87.83" r="6.36"/>
  <path class="cls-1" d="M64.77,68.74h-7.95l-4.77-4.77v-4.77h-4.77l-17.07-17.07c-10.81,3.78-22.64-1.91-26.43-12.72C0,18.6,5.69,6.77,16.5,2.98c10.81-3.78,22.64,1.91,26.43,12.72,1.55,4.44,1.55,9.27,0,13.7l5.94,5.94h19.08l8.23-8.23"/>
  <polyline class="cls-1" points="87.03 81.46 87.03 73.51 69.54 56.02 64.77 56.02 64.77 51.25 56.92 43.4"/>
</svg>