<?xml version="1.0" encoding="UTF-8"?>
<svg id="Layer_1" data-name="Layer 1" xmlns="http://www.w3.org/2000/svg" viewBox="0 0 96 96">
  <defs>
    <style>
      .cls-1 {
        fill: none;
        stroke: #333;
        stroke-linecap: round;
        stroke-linejoin: round;
      }
    </style>
  </defs>
  <path class="cls-1" d="M74.93,57.33l14.7,12.89c5.63,5.08,6.07,13.77.98,19.39-.16.17-.31.34-.48.51h0c-5.36,5.36-14.06,5.36-19.42,0-.17-.17-.32-.34-.48-.51l-15.96-17.4"/>
  <polyline class="cls-1" points="43.63 36.78 27.5 20.65 27.5 13.81 15.54 1.85 1.86 15.52 13.83 27.49 20.66 27.49 36.45 43.27"/>
  <path class="cls-1" d="M93.09,18.09l-12.61,12.61-15.16-15.16,12.6-12.61c-2.92-.86-5.96-1.2-9-1-11.57.96-20.74,10.14-21.71,21.71-.2,3.04.14,6.09,1,9.01L4.06,72.51c-2.72,2.46-2.94,6.67-.47,9.39,0,0,0,0,0,0,.08.08.15.17.23.24l10.05,10.05c2.6,2.59,6.81,2.58,9.4-.02.08-.08.15-.15.22-.23l39.9-44.16c2.92.86,5.97,1.2,9.01,1,11.57-.96,20.74-10.14,21.71-21.71.19-3.04-.15-6.09-1.02-9.01Z"/>
</svg>