<?xml version="1.0" encoding="UTF-8"?>
<svg id="Layer_1" data-name="Layer 1" xmlns="http://www.w3.org/2000/svg" viewBox="0 0 96 96">
  <defs>
    <style>
      .cls-1 {
        fill: none;
        stroke: #333;
        stroke-linecap: round;
        stroke-linejoin: round;
        stroke-width: 1.24px;
      }
    </style>
  </defs>
  <g>
    <g>
      <path class="cls-1" d="M66.4,84.92h24.22c2.07,0,3.75-1.68,3.75-3.75V14.83c0-2.07-1.68-3.75-3.75-3.75H5.37c-2.07,0-3.75,1.68-3.75,3.75v66.34c0,2.07,1.68,3.75,3.75,3.75h67.11"/>
      <line class="cls-1" x1="1.62" y1="24.2" x2="94.38" y2="24.2"/>
    </g>
    <line class="cls-1" x1="8.01" y1="17.6" x2="11.29" y2="17.6"/>
    <line class="cls-1" x1="15.16" y1="17.6" x2="18.44" y2="17.6"/>
    <line class="cls-1" x1="22.32" y1="17.6" x2="25.59" y2="17.6"/>
  </g>
  <g>
    <rect class="cls-1" x="13.91" y="35.09" width="17.64" height="17.64"/>
    <line class="cls-1" x1="13.91" y1="52.72" x2="30.26" y2="36.39"/>
  </g>
  <g>
    <rect class="cls-1" x="39.65" y="35.09" width="17.64" height="17.64"/>
    <line class="cls-1" x1="39.65" y1="52.72" x2="55.99" y2="36.39"/>
  </g>
  <g>
    <rect class="cls-1" x="64.99" y="35.09" width="17.64" height="17.64"/>
    <line class="cls-1" x1="64.99" y1="52.72" x2="81.34" y2="36.39"/>
  </g>
  <g>
    <line class="cls-1" x1="13.25" y1="60.5" x2="82.47" y2="60.5"/>
    <line class="cls-1" x1="13.25" y1="66.56" x2="82.47" y2="66.56"/>
    <line class="cls-1" x1="13.25" y1="72.59" x2="82.47" y2="72.59"/>
  </g>
</svg>