<?xml version="1.0" encoding="UTF-8"?>
<svg id="Layer_1" data-name="Layer 1" xmlns="http://www.w3.org/2000/svg" viewBox="0 0 80 80">
  <defs>
    <style>
      .cls-1 {
        fill: none;
        stroke: #333;
        stroke-linecap: round;
        stroke-linejoin: round;
      }

      .cls-2 {
        fill: #f6f0e9;
        opacity: 0;
      }
    </style>
  </defs>
  <rect class="cls-2" width="80" height="80"/>
  <g>
    <g>
      <circle class="cls-1" cx="14.04" cy="67.23" r="10.27"/>
      <polyline class="cls-1" points="10.09 66.67 13.19 69.79 17.81 65.22"/>
    </g>
    <polyline class="cls-1" points="13.71 56.28 13.71 47.41 76.23 47.41 76.23 32.17 66.43 32.04"/>
    <g>
      <circle class="cls-1" cx="52.63" cy="66.77" r="10.27"/>
      <polyline class="cls-1" points="48.68 66.21 51.77 69.33 56.4 64.76"/>
    </g>
    <rect class="cls-1" x="45.63" y="27.41" width="20.13" height="9.54"/>
    <rect class="cls-1" x="13.18" y="27.54" width="20.13" height="9.54"/>
    <rect class="cls-1" x="22.06" y="2.51" width="34.96" height="12.71"/>
    <line class="cls-1" x1="52.63" y1="56.5" x2="52.63" y2="48.99"/>
    <line class="cls-1" x1="34.11" y1="31.78" x2="44.71" y2="31.78"/>
    <polyline class="cls-1" points="21.66 8.47 4.05 8.47 4.16 32.04 13.18 32.04"/>
    <line class="cls-1" x1="30.67" y1="8.47" x2="49.74" y2="8.47"/>
  </g>
</svg>