<?xml version="1.0" encoding="UTF-8"?>
<svg id="Layer_1" data-name="Layer 1" xmlns="http://www.w3.org/2000/svg" viewBox="0 0 96 96">
  <defs>
    <style>
      .cls-1 {
        fill: none;
        stroke: #333;
        stroke-linecap: round;
        stroke-linejoin: round;
        stroke-width: 1.51px;
      }
    </style>
  </defs>
  <path class="cls-1" d="M57.83,27.56h-21.21c0-5.02,4.07-9.09,9.09-9.09h3.03c5.02,0,9.09,4.07,9.09,9.09h0Z"/>
  <circle class="cls-1" cx="47.22" cy="7.86" r="6.06"/>
  <path class="cls-1" d="M22.99,41.19H1.78c0-5.02,4.07-9.09,9.09-9.09h3.03c5.02,0,9.09,4.07,9.09,9.09h0Z"/>
  <circle class="cls-1" cx="12.38" cy="21.5" r="6.06"/>
  <path class="cls-1" d="M94.19,41.19h-21.21c0-5.02,4.07-9.09,9.09-9.09h3.03c5.02,0,9.09,4.07,9.09,9.09h0Z"/>
  <circle class="cls-1" cx="83.58" cy="21.5" r="6.06"/>
  <circle class="cls-1" cx="47.22" cy="53.31" r="13.63"/>
  <path class="cls-1" d="M51.77,74.52h-9.09c-10.04,0-18.18,8.14-18.18,18.18h45.45c0-10.04-8.14-18.18-18.18-18.18Z"/>
</svg>