<?xml version="1.0" encoding="UTF-8"?>
<svg id="Layer_1" data-name="Layer 1" xmlns="http://www.w3.org/2000/svg" viewBox="0 0 96 96">
  <defs>
    <style>
      .cls-1 {
        fill: none;
        stroke: #333;
        stroke-linecap: round;
        stroke-linejoin: round;
        stroke-width: 1.5px;
      }
    </style>
  </defs>
  <path class="cls-1" d="M57.83,28.33h-21.18c0-5.01,4.07-9.08,9.08-9.08h3.03c5.01,0,9.08,4.07,9.08,9.08h0Z"/>
  <circle class="cls-1" cx="47.24" cy="8.66" r="6.05"/>
  <path class="cls-1" d="M23.04,41.95H1.85c0-5.01,4.07-9.08,9.08-9.08h3.03c5.01,0,9.08,4.07,9.08,9.08h0Z"/>
  <circle class="cls-1" cx="12.44" cy="22.28" r="6.05"/>
  <path class="cls-1" d="M94.15,41.95h-21.18c0-5.01,4.07-9.08,9.08-9.08h3.03c5.01,0,9.08,4.07,9.08,9.08h0Z"/>
  <circle class="cls-1" cx="83.55" cy="22.28" r="6.05"/>
  <circle class="cls-1" cx="47.24" cy="54.05" r="13.61"/>
  <path class="cls-1" d="M51.78,75.24h-9.08c-10.03,0-18.16,8.13-18.16,18.16h45.39c0-10.03-8.13-18.16-18.16-18.16Z"/>
</svg>