<?xml version="1.0" encoding="UTF-8"?>
<svg id="Layer_1" data-name="Layer 1" xmlns="http://www.w3.org/2000/svg" viewBox="0 0 96 96">
  <defs>
    <style>
      .cls-1 {
        fill: none;
        stroke: #333;
        stroke-linecap: round;
        stroke-linejoin: round;
        stroke-width: 1.51px;
      }
    </style>
  </defs>
  <line class="cls-1" x1="48" y1="51.08" x2="48" y2="1.78"/>
  <path class="cls-1" d="M74.19,68.03v18.49c0,4.25-3.45,7.7-7.7,7.7H29.51c-4.25,0-7.7-3.45-7.7-7.7v-18.49"/>
  <rect class="cls-1" x="12.56" y="58.79" width="70.88" height="9.24"/>
  <path class="cls-1" d="M26.43,7.94h1.54c11.06,0,20.03,8.97,20.03,20.03v3.08h-1.54c-11.06,0-20.03-8.97-20.03-20.03v-3.08Z"/>
  <path class="cls-1" d="M69.57,17.18h-1.54c-11.06,0-20.03,8.97-20.03,20.03v3.08h1.54c11.06,0,20.03-8.97,20.03-20.03v-3.08Z"/>
</svg>