<?xml version="1.0" encoding="UTF-8"?>
<svg id="Layer_2" xmlns="http://www.w3.org/2000/svg" viewBox="0 0 475.68 157.57">
  <defs>
    <style>
      .cls-1 {
        fill: #cd7755;
      }

      .cls-2 {
        letter-spacing: 0em;
      }

      .cls-3 {
        font-family: PlayfairDisplay-Black, 'Playfair Display';
        font-size: 65.04px;
        font-weight: 800;
      }

      .cls-3, .cls-4 {
        fill: #152a36;
      }

      .cls-5 {
        letter-spacing: -.04em;
      }

      .cls-4 {
        font-family: Montserrat-Regular, Montserrat;
        font-size: 24.39px;
      }

      .cls-6 {
        letter-spacing: 0em;
      }

      .cls-7 {
        letter-spacing: 0em;
      }

      .cls-8 {
        letter-spacing: 0em;
      }

      .cls-9 {
        letter-spacing: 0em;
      }
    </style>
  </defs>
  <g id="Layer_1-2" data-name="Layer_1">
    <g>
      <path class="cls-1" d="M123.07,107.74l-31.81-33.85,30.66-16.07c.58-.3.9-.95.78-1.6-.11-.65-.62-1.15-1.29-1.23l-13.62-1.79,14.01-16.31c.43-.5.48-1.21.14-1.77-.34-.56-1.01-.83-1.65-.67l-38.22,9.5L74.07,1.23c-.13-.67-.69-1.18-1.37-1.22-.68-.05-1.31.36-1.54,1.01l-11.74,33.65-14.36-16.58c-.42-.49-1.11-.65-1.71-.41-.6.24-.97.84-.94,1.48l1.19,21.69-27.68-12.89c-.64-.29-1.39-.11-1.82.43-.43.55-.43,1.32,0,1.87l26.35,33.24L.91,80.73c-.63.28-1,.95-.89,1.63.11.68.67,1.19,1.36,1.26l27.38,2.29-8.04,8.95c-.46.51-.51,1.27-.13,1.84.38.57,1.1.81,1.75.59l28.25-9.84-.73,48.13c-.01.68.44,1.28,1.08,1.47.03.01.07.02.1.03.7.15,1.41-.21,1.7-.86l16.92-38.37,11.75,8.99c.48.36,1.12.41,1.64.12.52-.29.83-.86.78-1.45l-.93-10.73,38.51,15.41c.65.26,1.41.04,1.81-.55.4-.58.34-1.37-.15-1.88M115.48,104.07l-38.36-24.99,1.16-11,9.05,5.4c0,.38.11.75.37,1.03l27.77,29.56ZM71.64,87.59h-.03s-7.47-2.18-7.47-2.18l-7.83-11.08,1.16-8.14,4.58-2.74,11.8,24.79-2.22-.65ZM63.36,62.67l4.68-2.8c.04.14.11.28.24.38l8.58,6.91-2.06,19.53-11.44-24.02ZM69.67,14.46l-4.87,29.22-3.47-5.39c.03-.06.07-.12.09-.18l8.26-23.65ZM66.01,45.57l6.26-37.58,7.13,38.01-8.77,6.75-4.63-7.18ZM115.4,38.78l-37.71,27.11-8.4-6.76.21-.13s0,0,0,0h.02s.05-.06.07-.08c.05-.04.1-.07.13-.12.04-.04.06-.1.08-.15.01-.03.04-.06.05-.09l1.2-4.12,42.68-15.24,1.66-.41ZM116.31,57.36l-28.21,14.78s-.01.02-.03.02l-1.84-1.1,18.11-15.32c.1.04.2.07.31.08l11.66,1.53ZM103.7,53.35c-.3.35-.41.8-.33,1.24l-18.5,15.66-5.84-3.48,34.36-24.7-9.69,11.27ZM99,42.85l-24.32,8.68,5.67-4.37c.29.12.6.17.91.09l17.73-4.41ZM58.85,38.6c.3.35.75.53,1.2.51l4.52,7.02s0,.01.01.02l5.04,7.82-1.13,3.88-5.77,3.45-15.26-35.83,11.38,13.14ZM45.78,25.35l15.64,36.72-4.75,2.84-6.25-1.82-4.15-18.72c.33-.3.52-.73.49-1.18l-.98-17.84ZM44.62,44.64c.06.03.12.04.18.06l2.03,9.17-23.87-19.31,21.65,10.09ZM22.8,36.36l24.55,19.87,1.5,6.77-4.76.28s-.03-.08-.05-.11l-21.24-26.8ZM43.47,65.48c.32-.14.54-.4.7-.7l5.53-.32,6.24,1.82-1.08,7.58-45.2,6.35,33.81-14.72ZM11.65,81.45l38.4-5.39-17.24,7.4c-.22-.16-.49-.27-.78-.3l-20.39-1.71ZM26.88,92.51l6.15-6.85c.21-.23.33-.52.36-.83l21.87-9.38,3.73,5.27-6.09,3.3c-.11-.07-.23-.14-.35-.17-.3-.09-.62-.08-.92.02l-24.75,8.62ZM53.64,85.35l6.24-3.38,3,4.24-9.85,39.6.62-40.46ZM67.68,94.86l-12.4,28.12,8.95-35.98,6.22,1.81-1.7,5.2s-.04,0-.06,0c-.45.11-.82.43-1.01.85M70.19,94.44l1.71-5.21,3.09.9,4.7,2.41s0,.03,0,.05l.85,9.76-10.34-7.92ZM81.75,91.06c-.47-.18-.96-.12-1.37.14l-4.31-2.2.87-8.23,33.32,21.7-28.51-11.41Z"/>
      <text class="cls-3" transform="translate(136.45 107.82)"><tspan x="0" y="0">D</tspan><tspan class="cls-5" x="52.75" y="0">r</tspan><tspan x="81.49" y="0">. G</tspan><tspan class="cls-6" x="163.5" y="0">’</tspan><tspan x="179.7" y="0">s Lab</tspan></text>
      <text class="cls-4" transform="translate(154.79 151.18)"><tspan x="0" y="0">t</tspan><tspan class="cls-7" x="9.9" y="0">r</tspan><tspan x="19.49" y="0">auma-in</tspan><tspan class="cls-9" x="122.94" y="0">f</tspan><tspan x="131.02" y="0">o</tspan><tspan class="cls-8" x="146.31" y="0">r</tspan><tspan class="cls-2" x="155.92" y="0">m</tspan><tspan x="181.84" y="0">ed design</tspan></text>
    </g>
  </g>
</svg>