<?xml version="1.0" encoding="UTF-8"?>
<svg id="Layer_1" data-name="Layer 1" xmlns="http://www.w3.org/2000/svg" viewBox="0 0 96 96">
  <defs>
    <style>
      .cls-1 {
        fill: none;
        stroke: #333;
        stroke-linecap: round;
        stroke-linejoin: round;
        stroke-width: 1.59px;
      }
    </style>
  </defs>
  <circle class="cls-1" cx="47.99" cy="38.45" r="7.96"/>
  <path class="cls-1" d="M68.99,71.92c13.23-11.6,14.55-31.73,2.95-44.96-11.6-13.23-31.73-14.55-44.96-2.95-13.23,11.6-14.55,31.73-2.95,44.96.92,1.05,1.9,2.03,2.95,2.95"/>
  <path class="cls-1" d="M67.5,89.88c23.12-10.77,33.14-38.25,22.36-61.38C79.09,5.38,51.61-4.63,28.48,6.14,5.36,16.91-4.66,44.4,6.12,67.52c4.59,9.85,12.51,17.77,22.36,22.36"/>
  <path class="cls-1" d="M43.9,55.98h8.17c4.4,0,7.96,3.57,7.96,7.96,0,.22,0,.44-.03.66l-2.47,29.6h-19.11l-2.47-29.6c-.37-4.38,2.89-8.23,7.28-8.6.22-.02.44-.03.66-.03Z"/>
</svg>