<?xml version="1.0" encoding="UTF-8"?>
<svg id="Layer_1" data-name="Layer 1" xmlns="http://www.w3.org/2000/svg" viewBox="0 0 80 80">
  <defs>
    <style>
      .cls-1 {
        fill: none;
        stroke: #333;
        stroke-linecap: round;
        stroke-linejoin: round;
      }

      .cls-2 {
        fill: #f6f0e9;
        opacity: 0;
      }
    </style>
  </defs>
  <rect class="cls-2" width="80" height="80"/>
  <g>
    <g>
      <g>
        <path class="cls-1" d="M54.88,69.49h19.58c1.67,0,3.03-1.36,3.03-3.03V12.82c0-1.67-1.36-3.03-3.03-3.03H5.53c-1.67,0-3.03,1.36-3.03,3.03v53.64c0,1.67,1.36,3.03,3.03,3.03h54.26"/>
        <line class="cls-1" x1="2.5" y1="20.4" x2="77.5" y2="20.4"/>
      </g>
      <line class="cls-1" x1="7.67" y1="15.06" x2="10.32" y2="15.06"/>
      <line class="cls-1" x1="13.45" y1="15.06" x2="16.1" y2="15.06"/>
      <line class="cls-1" x1="19.24" y1="15.06" x2="21.88" y2="15.06"/>
    </g>
    <g>
      <rect class="cls-1" x="12.44" y="29.2" width="14.26" height="14.26"/>
      <line class="cls-1" x1="12.44" y1="43.46" x2="25.66" y2="30.25"/>
    </g>
    <g>
      <rect class="cls-1" x="33.25" y="29.2" width="14.26" height="14.26"/>
      <line class="cls-1" x1="33.25" y1="43.46" x2="46.46" y2="30.25"/>
    </g>
    <g>
      <rect class="cls-1" x="53.74" y="29.2" width="14.26" height="14.26"/>
      <line class="cls-1" x1="53.74" y1="43.46" x2="66.96" y2="30.25"/>
    </g>
    <g>
      <line class="cls-1" x1="11.9" y1="49.75" x2="67.87" y2="49.75"/>
      <line class="cls-1" x1="11.9" y1="54.65" x2="67.87" y2="54.65"/>
      <line class="cls-1" x1="11.9" y1="59.52" x2="67.87" y2="59.52"/>
    </g>
  </g>
</svg>