<?xml version="1.0" encoding="UTF-8"?>
<svg id="Layer_1" data-name="Layer 1" xmlns="http://www.w3.org/2000/svg" viewBox="0 0 136.86 186.46">
  <defs>
    <style>
      .cls-1 {
        fill: #cd7755;
      }

      .cls-2 {
        fill: #152a36;
      }
    </style>
  </defs>
  <path class="cls-1" d="M136.41,119.38l-35.25-37.51,33.97-17.82c.65-.35,1-1.05.86-1.77-.12-.72-.67-1.28-1.42-1.37l-15.1-1.98,15.52-18.08c.47-.56.54-1.35.16-1.95-.37-.63-1.12-.93-1.84-.74l-42.35,10.52L82.08,1.35c-.14-.74-.77-1.3-1.51-1.35s-1.47.4-1.7,1.12l-13.01,37.3-15.91-18.36c-.47-.54-1.23-.72-1.88-.47-.65.28-1.07.93-1.05,1.65l1.33,24.03-30.67-14.29c-.7-.33-1.54-.14-2.02.49-.49.6-.49,1.47,0,2.07l29.2,36.83L1.02,89.49c-.7.3-1.12,1.05-.98,1.79.12.74.74,1.33,1.51,1.4l30.34,2.54-8.91,9.91c-.51.56-.58,1.4-.14,2.05.42.63,1.21.91,1.95.65l31.29-10.91-.81,53.33c0,.74.49,1.42,1.21,1.63.02,0,.07,0,.12.02.77.16,1.56-.23,1.88-.95l18.75-42.51,13.01,9.96c.54.4,1.23.47,1.81.14s.91-.95.86-1.61l-1.02-11.89,42.67,17.08c.72.28,1.56.05,2-.6.44-.65.37-1.51-.16-2.09M128.01,115.31l-42.51-27.69,1.28-12.19,10.03,5.98c0,.42.12.84.42,1.14,0,0,30.78,32.76,30.78,32.76ZM79.43,97.07h-.02l-8.28-2.42-8.68-12.28,1.28-9.03,5.07-3.05,13.08,27.48-2.47-.72.02.02ZM70.24,69.45l5.19-3.09c.05.16.12.3.26.42l9.52,7.65-2.28,21.64-12.68-26.62ZM77.24,16.03l-5.4,32.39-3.84-5.98s.07-.14.09-.21l9.14-26.2ZM73.17,50.49l6.93-41.65,7.91,42.11-9.73,7.49-5.12-7.96ZM127.92,42.98l-41.79,30.04-9.31-7.49.23-.14h.02s.05-.07.07-.09c.05-.05.12-.09.14-.14.05-.05.07-.12.09-.16,0-.05.05-.07.05-.09l1.33-4.56,47.3-16.89,1.84-.47h.02ZM128.92,63.57l-31.25,16.38-.02.02-2.05-1.21,20.06-16.98s.21.07.35.09l12.91,1.7ZM114.96,59.12c-.33.37-.44.88-.37,1.37l-20.5,17.36-6.47-3.86,38.06-27.36-10.73,12.49ZM109.75,47.49l-26.94,9.63,6.28-4.84c.33.14.67.19,1,.09l19.66-4.89ZM65.24,42.79c.35.4.84.58,1.33.56l5,7.77h0l5.58,8.66-1.26,4.3-6.4,3.82-16.91-39.72,12.61,14.56.05.05ZM50.77,28.09l17.33,40.69-5.26,3.14-6.93-2.02-4.61-20.75c.37-.33.58-.81.54-1.3l-1.09-19.78.02.02ZM49.49,49.47s.14.05.21.07l2.26,10.17-26.45-21.41,23.99,11.17ZM25.31,40.3l27.2,22.01,1.65,7.49-5.28.3s-.02-.09-.07-.12l-23.55-29.71.05.02ZM48.21,72.57c.35-.16.6-.44.77-.79l6.14-.35,6.91,2.02-1.19,8.4-50.09,7.03,37.46-16.31ZM12.94,90.25l42.55-5.98-19.1,8.19c-.26-.19-.54-.3-.86-.33,0,0-22.59-1.88-22.59-1.88ZM29.83,102.52l6.82-7.58c.23-.26.37-.58.4-.91l24.24-10.4,4.14,5.84-6.75,3.65c-.12-.07-.26-.14-.4-.19-.33-.09-.67-.09-1.02.02l-27.43,9.56ZM59.47,94.58l6.91-3.75,3.33,4.7-10.91,43.88.67-44.83ZM75.03,105.12l-13.75,31.15,9.91-39.88,6.89,2-1.88,5.77h-.07c-.49.12-.91.47-1.12.93M77.83,104.66l1.88-5.77,3.42,1,5.21,2.68v.05l.93,10.82-11.47-8.77h.02ZM90.62,100.91c-.51-.21-1.07-.14-1.51.16l-4.77-2.44.95-9.12,36.92,24.06-31.6-12.63v-.02Z"/>
  <g>
    <path class="cls-2" d="M17.03,169.64c1.82,1.56,2.73,3.84,2.73,6.82,0,1.93-.45,3.6-1.34,5.04s-2.18,2.56-3.85,3.35-3.68,1.19-5.98,1.19l-1.64-.02c-1.06-.03-1.84-.06-2.33-.06-2.06,0-3.6.02-4.61.08v-.53c.57-.03.97-.11,1.23-.21.26-.11.43-.31.52-.61s.13-.79.13-1.46v-13.13c0-.67-.05-1.16-.15-1.46-.1-.3-.27-.5-.52-.61s-.66-.18-1.21-.21v-.53c.81.06,2.02.08,3.6.08h.96l1.17-.02c1.48-.03,2.52-.06,3.1-.06,3.65,0,6.39.79,8.21,2.35v-.02ZM7.98,167.95c-.28.12-.46.35-.57.66s-.16.79-.16,1.43v13.25c0,.64.06,1.11.16,1.43.11.32.3.54.57.66.28.12.7.19,1.26.19,1.75,0,3.01-.75,3.79-2.27.78-1.51,1.17-3.76,1.17-6.74s-.4-5.2-1.21-6.63c-.8-1.44-2.06-2.16-3.77-2.16-.55,0-.96.06-1.23.19v-.02Z"/>
    <path class="cls-2" d="M32.82,172.72c.38.53.57,1.16.57,1.88,0,.79-.23,1.43-.67,1.89s-1.04.7-1.76.7c-.76,0-1.34-.17-1.75-.52s-.61-.81-.61-1.39c0-1.04.45-1.86,1.35-2.46-.32,0-.6.06-.85.19-.45.19-.81.51-1.11.94s-.45.91-.45,1.42v7.94c0,.83.17,1.4.52,1.71s.93.46,1.76.46v.56c-.23,0-.42,0-.58-.02-1.85-.06-3.09-.08-3.71-.08-.55,0-1.77.02-3.68.08-.14.02-.32.02-.56.02v-.56c.55,0,.93-.14,1.15-.41s.33-.77.33-1.5v-8.4c0-.81-.11-1.4-.33-1.77-.22-.37-.61-.56-1.15-.56v-.56c.57.06,1.11.08,1.64.08,1.84,0,3.37-.12,4.61-.37v1.91c.67-1.33,1.81-1.98,3.42-1.98.87,0,1.49.27,1.87.79h0Z"/>
    <path class="cls-2" d="M38.12,182.44c.45.39.67.96.67,1.69s-.23,1.3-.67,1.69c-.45.39-1.1.58-1.94.58s-1.5-.19-1.94-.58c-.45-.39-.67-.96-.67-1.69s.23-1.3.67-1.69c.45-.39,1.1-.58,1.94-.58s1.5.19,1.94.58Z"/>
    <path class="cls-2" d="M59.96,167.37c.81.3,1.55.72,2.23,1.27.19.16.37.23.53.23.18,0,.32-.13.42-.38.11-.26.19-.66.23-1.21h.61c-.07,1.26-.11,3.46-.11,6.62h-.61c-.12-1.39-.36-2.5-.69-3.31s-.91-1.5-1.75-2.06c-.37-.25-.8-.45-1.29-.58-.49-.14-.96-.21-1.44-.21-1.27,0-2.3.45-3.08,1.34s-1.34,2.02-1.67,3.38c-.32,1.36-.49,2.78-.49,4.27,0,3.07.37,5.37,1.13,6.88s1.8,2.28,3.14,2.28c.55,0,.98-.11,1.3-.32.37-.27.56-.7.56-1.33v-2.65c0-.88-.07-1.53-.21-1.94-.14-.41-.4-.7-.75-.85s-.93-.24-1.71-.28v-.53c1.2.06,2.89.08,5.06.08,1.82,0,3.18-.02,4.08-.08v.53c-.32.03-.55.11-.7.21s-.25.31-.31.61-.08.79-.08,1.46v5.25h-.53c-.02-.37-.1-.71-.23-1.04s-.33-.48-.58-.48c-.37,0-.97.2-1.8.61-1.77.85-3.25,1.27-4.48,1.27-3.29,0-5.77-.83-7.44-2.49s-2.52-4.02-2.52-7.1c0-1.94.44-3.66,1.31-5.17.87-1.5,2.09-2.66,3.64-3.5,1.55-.83,3.33-1.25,5.33-1.25,1.13,0,2.11.15,2.91.45h-.02Z"/>
    <path class="cls-2" d="M71.11,167.9c.19.27.36.62.48,1.06s.19.92.19,1.46c0,.91-.23,1.77-.71,2.54-.48.78-1.17,1.38-2.09,1.8l-.23-.48c.46-.21.87-.52,1.23-.91s.62-.82.75-1.26c.09-.25.13-.54.13-.87,0-.27-.02-.46-.06-.58-.46.55-1.1.82-1.94.82-.7,0-1.27-.2-1.69-.6-.42-.4-.64-.96-.64-1.68s.23-1.24.69-1.65,1.06-.62,1.8-.62c.96,0,1.65.32,2.09.98h0Z"/>
    <path class="cls-2" d="M80.47,172.15c.61.15,1.07.32,1.39.49.19.11.36.16.48.16.37,0,.59-.28.66-.85h.53c-.07.91-.11,2.51-.11,4.77h-.53c-.14-1.17-.47-2.15-1-2.96-.52-.8-1.28-1.21-2.27-1.21-.45,0-.81.13-1.11.4s-.45.62-.45,1.08c0,.58.19,1.1.58,1.55.39.45,1,1,1.83,1.65.03.02.29.22.77.61.99.81,1.72,1.53,2.17,2.16.46.62.69,1.4.69,2.32,0,.78-.23,1.48-.71,2.11s-1.13,1.11-1.94,1.46-1.72.52-2.69.52c-1.11,0-2.02-.22-2.73-.66-.3-.16-.55-.28-.74-.35s-.39-.11-.58-.11c-.33,0-.58.31-.74.92h-.53c.07-1,.11-2.77.11-5.3h.53c.16,1.45.55,2.62,1.17,3.5.62.88,1.39,1.33,2.33,1.33.45,0,.81-.12,1.1-.37.29-.25.44-.61.44-1.08s-.11-.94-.31-1.33-.45-.74-.74-1.04-.76-.75-1.42-1.34c-.74-.69-1.3-1.24-1.69-1.64s-.72-.87-1-1.42-.41-1.13-.41-1.79c0-.76.23-1.43.69-2.02s1.07-1.03,1.83-1.34c.76-.31,1.58-.46,2.46-.46.69,0,1.34.07,1.94.23h0Z"/>
    <path class="cls-2" d="M100.95,167.81c-.64.03-1.1.11-1.39.21-.29.11-.49.31-.6.61-.11.3-.16.79-.16,1.46v13.67c0,.49.03.86.11,1.08.07.23.19.38.37.46s.47.12.87.12h.87c.62,0,1.29-.31,2.02-.92.72-.62,1.38-1.43,1.96-2.45.58-1.01.97-2.07,1.17-3.17h.61c-.06.64-.08,1.45-.08,2.44,0,1.9.06,3.48.19,4.71-1.2-.06-3.22-.08-6.06-.08-4.13,0-7.22.02-9.27.08v-.53c.57-.03.97-.11,1.23-.21.26-.11.43-.31.52-.61s.13-.79.13-1.46v-13.13c0-.67-.05-1.16-.15-1.46-.1-.3-.27-.5-.52-.61s-.66-.18-1.21-.21v-.53c1,.06,2.57.08,4.71.08s3.6-.02,4.69-.08v.53h0Z"/>
    <path class="cls-2" d="M108.83,185.31c-.57-.61-.86-1.37-.86-2.29,0-.79.21-1.45.62-1.98.41-.52.91-.92,1.47-1.21s1.3-.57,2.19-.87c.96-.32,1.65-.61,2.09-.87s.66-.64.66-1.11v-2.36c0-.57-.15-1.07-.42-1.51-.28-.45-.77-.66-1.46-.66-.55,0-1.04.15-1.48.45.6.21,1.04.53,1.34.94s.44.87.44,1.39c0,.69-.24,1.24-.73,1.65s-1.08.62-1.77.62-1.23-.22-1.63-.65-.6-.99-.6-1.65c0-.53.13-.99.4-1.38.27-.39.68-.74,1.25-1.06.99-.57,2.4-.85,4.23-.85.97,0,1.81.09,2.52.28s1.3.53,1.8,1.04c.36.37.58.83.7,1.39.11.56.17,1.33.17,2.32v7.1c0,.45.03.74.09.9.06.16.17.23.33.23.12,0,.26-.04.4-.12.14-.08.28-.17.4-.28l.27.45c-.76.66-1.85.98-3.25.98-1.06,0-1.8-.18-2.23-.54-.42-.36-.66-.85-.69-1.47-.83,1.34-2.06,2.02-3.71,2.02-1.13,0-1.98-.31-2.56-.91h0ZM115.02,183.66v-5.59c-.16.27-.45.61-.87,1.04-.48.46-.84.91-1.08,1.34-.25.43-.37,1.02-.37,1.76,0,1.27.45,1.91,1.35,1.91.37,0,.7-.15.98-.45Z"/>
    <path class="cls-2" d="M135.25,173.62c.85,1.13,1.27,2.78,1.27,4.96,0,2.81-.57,4.82-1.69,6.02-1.13,1.21-2.62,1.81-4.48,1.81-.57,0-1.04-.02-1.42-.06-.38-.03-.73-.12-1.04-.27-.66-.27-1.34-.4-2.04-.4-.53,0-1.02.07-1.48.21s-.81.32-1.06.56l-.37-.27c.12-.37.19-.86.19-1.46v-16.23c0-.81-.11-1.4-.33-1.77-.22-.37-.61-.56-1.15-.56v-.56c.55.06,1.09.08,1.64.08,1.84,0,3.38-.12,4.61-.37v8.58c.81-1.33,2.15-1.98,4.02-1.98,1.38,0,2.49.57,3.34,1.69h0ZM131.57,179.18c0-2.17-.16-3.69-.48-4.57-.32-.87-.75-1.31-1.3-1.31-.51,0-.96.18-1.34.54s-.57.82-.57,1.36v10.36c.4.21.82.32,1.25.32,1.63,0,2.44-2.23,2.44-6.7h0Z"/>
  </g>
</svg>