<?xml version="1.0" encoding="UTF-8"?>
<svg id="Layer_1" data-name="Layer 1" xmlns="http://www.w3.org/2000/svg" xmlns:xlink="http://www.w3.org/1999/xlink" viewBox="0 0 224 225">
  <defs>
    <style>
      .cls-1 {
        fill: none;
      }

      .cls-2 {
        fill: #264c52;
      }

      .cls-3 {
        fill: #d4a18c;
      }

      .cls-4 {
        clip-path: url(#clippath-1);
      }

      .cls-5 {
        clip-path: url(#clippath-3);
      }

      .cls-6 {
        clip-path: url(#clippath-2);
      }

      .cls-7 {
        fill: #86dad9;
      }

      .cls-8 {
        opacity: 0;
      }

      .cls-9 {
        clip-path: url(#clippath);
      }
    </style>
    <clipPath id="clippath">
      <rect class="cls-1" x="56.86" y="52.04" width="110.28" height="120.92"/>
    </clipPath>
    <clipPath id="clippath-1">
      <rect class="cls-1" x="56.86" y="52.04" width="110.28" height="120.92"/>
    </clipPath>
    <clipPath id="clippath-2">
      <rect class="cls-1" x="56.86" y="52.04" width="110.28" height="120.92"/>
    </clipPath>
    <clipPath id="clippath-3">
      <rect class="cls-1" x="56.86" y="52.04" width="110.28" height="120.92"/>
    </clipPath>
  </defs>
  <rect class="cls-7" x="-3" y="-3" width="230" height="231.5"/>
  <g id="Artwork_6" data-name="Artwork 6">
    <g class="cls-9">
      <g class="cls-4">
        <g class="cls-6">
          <g class="cls-8">
            <g class="cls-5">
              <rect class="cls-3" x="56.86" y="52.04" width="110.28" height="120.92"/>
            </g>
          </g>
          <path class="cls-2" d="M160.2,143.3l-25-26.6,24.09-12.64c.46-.25.71-.74.61-1.25-.08-.51-.48-.91-1.01-.97l-10.71-1.4,11.01-12.82c.33-.4.38-.96.12-1.39-.26-.45-.79-.66-1.3-.53l-30.03,7.46-6.3-33.56c-.1-.53-.54-.92-1.07-.96-.53-.03-1.04.28-1.2.79l-9.22,26.45-11.29-13.02c-.33-.38-.87-.51-1.34-.33-.46.2-.76.66-.74,1.17l.94,17.05-21.75-10.13c-.5-.23-1.09-.1-1.44.35-.35.43-.35,1.04,0,1.47l20.71,26.12-31.09,13.55c-.5.21-.79.74-.69,1.27.08.53.53.94,1.07.99l21.52,1.8-6.32,7.03c-.36.4-.41.99-.1,1.45.3.45.86.64,1.39.46l22.19-7.74-.58,37.82c0,.53.35,1.01.86,1.16.02,0,.05,0,.08.02.54.12,1.11-.17,1.34-.68l13.3-30.15,9.22,7.06c.38.28.87.33,1.29.1.41-.23.64-.68.61-1.14l-.73-8.43,30.26,12.11c.51.2,1.11.03,1.42-.43.31-.46.26-1.07-.12-1.49M154.25,140.41l-30.15-19.64.91-8.65,7.11,4.24c0,.3.08.59.3.81l21.83,23.23M119.79,127.47h-.02l-5.87-1.72-6.15-8.71.91-6.4,3.6-2.16,9.27,19.49-1.75-.51.02.02ZM113.28,107.88l3.68-2.19c.03.12.08.21.18.3l6.75,5.43-1.62,15.35-8.99-18.88ZM118.24,70l-3.83,22.97-2.72-4.24s.05-.1.07-.15l6.48-18.58ZM115.36,94.44l4.92-29.54,5.61,29.87-6.9,5.31-3.63-5.64ZM154.18,89.11l-29.64,21.3-6.6-5.31.17-.1h.02s.03-.05.05-.07c.03-.03.08-.07.1-.1.03-.03.05-.08.07-.12,0-.03.03-.05.03-.07l.94-3.23,33.55-11.98,1.3-.33h.02ZM154.89,103.71l-22.16,11.62-.02.02-1.45-.86,14.22-12.05s.15.05.25.07l9.16,1.2ZM144.99,100.56c-.23.26-.31.63-.26.97l-14.54,12.31-4.59-2.74,27-19.4-7.61,8.86ZM141.29,92.31l-19.11,6.83,4.46-3.43c.23.1.48.13.71.07l13.94-3.47ZM109.73,88.97c.25.28.59.41.94.4l3.55,5.51,3.96,6.14-.89,3.05-4.54,2.71-12-28.17,8.94,10.33.03.03ZM99.47,78.55l12.29,28.86-3.73,2.23-4.92-1.44-3.27-14.72c.26-.23.41-.58.38-.92l-.78-14.03.02.02ZM98.56,93.71s.1.03.15.05l1.6,7.21-18.76-15.18,17.01,7.92ZM81.41,87.21l19.29,15.61,1.17,5.31-3.75.21s-.02-.07-.05-.08l-16.7-21.07.03.02ZM97.65,110.1c.25-.12.43-.31.54-.56l4.36-.25,4.9,1.44-.84,5.96-35.53,4.98,26.57-11.57M72.64,122.64l30.18-4.24-13.55,5.81c-.18-.13-.38-.21-.61-.23l-16.02-1.34M84.61,131.33l4.83-5.38c.17-.18.26-.41.28-.64l17.19-7.38,2.94,4.14-4.79,2.59c-.08-.05-.18-.1-.28-.13-.23-.07-.48-.07-.73.02l-19.45,6.78M105.64,125.71l4.9-2.66,2.36,3.33-7.74,31.12.48-31.8ZM116.68,133.18l-9.75,22.09,7.03-28.28,4.88,1.42-1.34,4.09h-.05c-.35.08-.64.33-.79.66M118.66,132.85l1.34-4.09,2.43.71,3.7,1.9v.03l.66,7.67-8.13-6.22h.02ZM127.73,130.19c-.36-.15-.76-.1-1.07.12l-3.38-1.73.68-6.47,26.19,17.06-22.41-8.96v-.02Z"/>
        </g>
      </g>
    </g>
  </g>
</svg>